<svg width="153" height="24" viewBox="0 0 153 24" fill="none" xmlns="http://www.w3.org/2000/svg">
<path d="M106.65 17.9265H107.254C107.971 19.8121 109.717 20.7749 111.902 20.7749C114.703 20.7749 116.881 19.3872 116.881 15.8882V13.6109C116.005 15.6027 114.225 16.5986 111.968 16.5986C108.715 16.5986 106.517 14.6865 106.517 11.0348V5.2186H107.101V11.0348C107.101 14.2416 109.027 16.0608 111.988 16.0608C114.949 16.0608 116.881 14.2151 116.881 11.0348V5.2186H117.519V15.9347C117.519 19.7922 115.095 21.3658 111.955 21.3658C109.452 21.3326 107.407 20.184 106.65 17.9265Z" fill="#595857"/>
<path d="M111.922 21.7044C109.173 21.7044 107.068 20.3765 106.291 18.0593L106.125 17.568H107.513L107.606 17.807C108.27 19.4934 109.777 20.4163 111.922 20.4163C113.641 20.4163 116.523 19.8321 116.523 15.9015V14.972C115.973 15.6332 115.278 16.1574 114.491 16.5032C113.703 16.8489 112.847 17.0066 111.988 16.9638C108.336 16.9638 106.159 14.7462 106.159 11.0281V4.84677H107.486V11.0348C107.486 13.9428 109.173 15.6824 112.001 15.6824C114.83 15.6824 116.516 13.9428 116.516 11.0348V4.84677H117.844V15.9347C117.857 19.5864 115.693 21.7044 111.922 21.7044Z" fill="#595857"/>
<path d="M116.523 4.84677V11.0348C116.523 13.9428 114.836 15.6824 112.008 15.6824C109.179 15.6824 107.493 13.9428 107.493 11.0348V4.84677H106.165V11.0348C106.165 14.7529 108.343 16.9704 111.994 16.9704C112.853 17.0132 113.71 16.8555 114.497 16.5098C115.284 16.1641 115.98 15.6398 116.529 14.9786V15.9347C116.529 19.8652 113.648 20.4495 111.928 20.4495C109.784 20.4495 108.25 19.5266 107.612 17.8402L107.519 17.6012H106.132L106.298 18.0925C107.075 20.3765 109.179 21.7376 111.928 21.7376C115.699 21.7376 117.864 19.6196 117.864 15.9347V4.84677H116.523Z" fill="#595857"/>
<path d="M150.789 5.01276V11.2007C150.789 14.1155 149.102 15.8484 146.274 15.8484C143.446 15.8484 141.753 14.1155 141.753 11.2007V5.01276H140.425V11.2007C140.425 14.9188 142.609 17.1364 146.274 17.1364C149.939 17.1364 152.123 14.9188 152.123 11.2007V5.01276H150.789Z" fill="#595857"/>
<path d="M5.13233 0.962708C4.85993 0.964448 4.59918 1.07343 4.40656 1.26605C4.21394 1.45867 4.10495 1.71942 4.10321 1.99182C4.10553 2.17451 4.1574 2.35314 4.25328 2.50866C4.34917 2.66418 4.48547 2.79075 4.64765 2.87487L3.9837 5.31156H5.13233L6.06186 2.5429C6.1259 2.36634 6.15739 2.17963 6.15481 1.99182C6.15482 1.72003 6.0473 1.45927 5.85574 1.26647C5.66418 1.07366 5.40412 0.964461 5.13233 0.962708Z" fill="#595857"/>
<path d="M63.9978 10.0787H63.8384C61.8466 9.80649 60.6249 9.56083 60.6515 8.13999C60.6536 7.72028 60.7812 7.31081 61.0178 6.96416C61.2545 6.61751 61.5893 6.34952 61.9794 6.19462L62.0989 6.14814C62.2251 6.10167 62.3512 6.05519 62.4906 6.01536C62.6085 5.98335 62.7282 5.95896 62.8492 5.94232C62.9288 5.94232 63.0019 5.90912 63.0882 5.90248C63.1745 5.89585 63.367 5.90248 63.5065 5.90248H63.7853C63.8916 5.90248 63.9912 5.90248 64.0974 5.90248C64.224 5.90666 64.3504 5.91774 64.4758 5.93568L64.7414 5.98216L65.0667 6.05519C65.2045 6.09584 65.3398 6.14462 65.4718 6.20126L65.5713 6.2411C65.9583 6.39472 66.291 6.65965 66.5274 7.00238C66.7637 7.34512 66.8932 7.75025 66.8992 8.16654V8.53171H66.9391V8.59147H68.267V8.20638C68.2608 7.49173 68.0335 6.79654 67.6161 6.21636C67.1988 5.63618 66.6121 5.19949 65.9365 4.96632H65.89C65.7904 4.92648 65.6842 4.88665 65.5713 4.85345L65.3987 4.80033L65.1796 4.74058L64.8941 4.64762H64.7281L64.436 4.60779H64.2634H63.9978H63.8252H63.2542H63.1147C63.0019 4.60779 62.889 4.60779 62.7828 4.64762H62.6433C62.5437 4.64762 62.4442 4.64762 62.3446 4.70738L62.1454 4.75386L61.9462 4.80697L61.6408 4.9132H61.581C60.8882 5.14712 60.287 5.59421 59.8637 6.19049C59.4403 6.78677 59.2164 7.50169 59.224 8.23294C59.224 10.7958 61.6541 11.1078 63.6525 11.3269H63.7389H63.8384C65.89 11.6058 67.1582 11.8448 67.1183 13.2524C67.1039 13.6967 66.9589 14.1269 66.7015 14.4894C66.4441 14.8519 66.0857 15.1306 65.6709 15.2907C65.5846 15.3305 65.485 15.3571 65.3921 15.3903C65.2991 15.4235 65.2128 15.4633 65.1132 15.4899C65.0136 15.5164 64.8078 15.5563 64.6485 15.5828L64.4559 15.616C64.3032 15.616 64.1439 15.616 63.9845 15.616H63.7123C63.5928 15.616 63.4866 15.616 63.3737 15.616C63.2608 15.616 63.0948 15.616 62.962 15.5828L62.723 15.5364C62.5843 15.5124 62.4469 15.4814 62.3114 15.4434C62.2094 15.415 62.1096 15.3795 62.0126 15.3372C61.9263 15.304 61.8333 15.2774 61.747 15.2376C61.3381 15.0781 60.9823 14.8067 60.7205 14.4544C60.4586 14.1022 60.3013 13.6833 60.2664 13.2457V12.8806H60.2266V12.8142H58.8987V13.2059C58.9123 13.8758 59.1161 14.5281 59.4864 15.0865C59.8568 15.6449 60.3783 16.0865 60.9901 16.3596L61.1495 16.4327L61.342 16.519L61.6474 16.6319L61.7337 16.6651L62.1255 16.7713H62.1653L62.5969 16.8576L63.0085 16.9107H63.1081H63.4334H63.8584C63.9734 16.9173 64.0886 16.9173 64.2036 16.9107H64.3098L64.7082 16.8709H64.7746L65.1796 16.7979H65.2593C65.3788 16.7647 65.4983 16.7381 65.6178 16.6983L65.7573 16.6518L66.0162 16.5588L66.2619 16.4526L66.3814 16.3928C67.0101 16.1187 67.5457 15.6678 67.9229 15.095C68.3001 14.5221 68.5027 13.852 68.506 13.1661C68.5259 10.5767 66.0096 10.2978 63.9978 10.0787Z" fill="#595857"/>
<path d="M1.37437 1.25488H0V16.6784H1.37437V1.25488Z" fill="#595857"/>
<path d="M20.2504 4.5547C19.4026 4.51807 18.5622 4.72654 17.8298 5.15515C17.0974 5.58376 16.504 6.21436 16.1207 6.97147C15.7391 6.21436 15.1471 5.58354 14.4157 5.15481C13.6842 4.72609 12.8446 4.5177 11.9976 4.5547C9.08284 4.5547 7.27026 6.54654 7.27026 9.68701V16.6784H8.59816V9.68701C8.63135 7.30344 9.87958 5.84276 12.0175 5.84276C14.1554 5.84276 15.4567 7.31672 15.4567 9.68701V16.6784H16.7846V9.68701C16.7846 7.31672 18.1125 5.84276 20.2239 5.84276C22.3352 5.84276 23.6432 7.27688 23.6432 9.68701V16.6784H24.9711V9.68701C24.9777 6.51998 23.1651 4.5547 20.2504 4.5547Z" fill="#595857"/>
<path d="M38.7347 4.55467C37.778 4.51904 36.8264 4.70902 35.9567 5.10925C35.087 5.50949 34.3237 6.10874 33.7285 6.85857V0H32.4006V10.7161C32.4006 14.401 35.0033 16.9705 38.7214 16.9705C39.5528 17.0081 40.3831 16.8742 41.1605 16.5773C41.938 16.2803 42.6461 15.8266 43.2408 15.2444C43.8355 14.6622 44.304 13.9639 44.6174 13.1928C44.9307 12.4218 45.0821 11.5946 45.0621 10.7626C45.0839 9.9312 44.9343 9.10425 44.6224 8.33327C44.3106 7.56228 43.8433 6.8638 43.2496 6.28136C42.656 5.69892 41.9487 5.24502 41.1719 4.94794C40.3952 4.65087 39.5655 4.517 38.7347 4.55467ZM38.7347 15.6824C38.0764 15.7171 37.4181 15.6141 36.8019 15.38C36.1857 15.1459 35.6251 14.7859 35.1558 14.3229C34.6866 13.8599 34.3191 13.3042 34.0768 12.6911C33.8344 12.0781 33.7226 11.4213 33.7484 10.7626C33.7228 10.1057 33.8341 9.45059 34.0752 8.83898C34.3164 8.22738 34.6821 7.67262 35.1491 7.20994C35.6162 6.74727 36.1743 6.38679 36.7882 6.15142C37.402 5.91605 38.0581 5.81093 38.7148 5.84273C39.373 5.80807 40.0313 5.91107 40.6475 6.14516C41.2638 6.37925 41.8244 6.73928 42.2936 7.20226C42.7629 7.66525 43.1304 8.221 43.3727 8.83403C43.615 9.44706 43.7268 10.1039 43.701 10.7626C43.7268 11.4213 43.615 12.0781 43.3727 12.6911C43.1304 13.3042 42.7629 13.8599 42.2936 14.3229C41.8244 14.7859 41.2638 15.1459 40.6475 15.38C40.0313 15.6141 39.373 15.7171 38.7148 15.6824H38.7347Z" fill="#595857"/>
<path d="M51.9538 4.55472C48.2755 4.55472 45.6064 7.16403 45.6064 10.7626C45.6064 14.3612 48.2622 16.9705 51.9538 16.9705C53.1776 17.0287 54.3899 16.7113 55.4283 16.061C56.4666 15.4107 57.2814 14.4585 57.7633 13.3321L57.9824 12.8142H56.5616L56.462 13.0267C55.9499 13.9759 55.1479 14.7365 54.1729 15.1978C53.198 15.659 52.1012 15.7966 51.0426 15.5905C49.984 15.3844 49.0189 14.8454 48.2882 14.0521C47.5575 13.2589 47.0994 12.2529 46.9808 11.1809H57.8961L58.2745 11.1344V10.7626C58.2953 9.93209 58.1452 9.10616 57.8334 8.3361C57.5216 7.56603 57.0549 6.86827 56.4622 6.28613C55.8695 5.704 55.1634 5.24991 54.3878 4.95206C53.6123 4.65422 52.7838 4.51897 51.9538 4.55472ZM47.0074 9.86629C47.2306 8.72183 47.8448 7.69058 48.7447 6.94918C49.6447 6.20778 50.7745 5.80236 51.9405 5.80236C53.1065 5.80236 54.2363 6.20778 55.1362 6.94918C56.0362 7.69058 56.6504 8.72183 56.8736 9.86629H47.0074Z" fill="#595857"/>
<path d="M71.4207 4.84677H70.0862V16.6783H71.4207V4.84677Z" fill="#595857"/>
<path d="M71.4607 1.12201C71.418 1.07542 71.3688 1.03518 71.3147 1.0025C71.1492 0.887298 70.9518 0.826918 70.7503 0.829877C70.6156 0.828734 70.4821 0.855877 70.3586 0.90955C70.1774 0.986438 70.0229 1.11495 69.9142 1.27906C69.8056 1.44317 69.7477 1.63563 69.7477 1.83244C69.7477 2.02924 69.8056 2.2217 69.9142 2.38581C70.0229 2.54993 70.1774 2.67843 70.3586 2.75532C70.4821 2.809 70.6156 2.83614 70.7503 2.835C70.9507 2.83694 71.1472 2.77915 71.3147 2.66901C71.3677 2.63226 71.4166 2.58997 71.4607 2.54286C71.5558 2.45497 71.6286 2.34574 71.6732 2.22416C71.7258 2.10026 71.7529 1.96704 71.7529 1.83244C71.7529 1.69783 71.7258 1.56461 71.6732 1.44071C71.6269 1.32001 71.5543 1.21114 71.4607 1.12201Z" fill="#595857"/>
<path d="M84.1951 0V6.85857C83.363 5.85969 82.2468 5.13756 80.9946 4.78808C79.7424 4.4386 78.4135 4.47831 77.1844 4.90193C75.9553 5.32555 74.8842 6.11305 74.1133 7.15983C73.3423 8.20661 72.9081 9.46315 72.8681 10.7626C72.851 12.0214 73.2118 13.2564 73.9039 14.3081C74.1265 14.6348 74.38 14.9394 74.6608 15.2177C74.8002 15.3504 74.9463 15.4832 75.1056 15.6094C76.2826 16.5056 77.7299 16.974 79.2088 16.9373C79.4412 16.9373 79.6736 16.9373 79.8728 16.9373C81.3247 16.8356 82.6948 16.2269 83.7436 15.2177C84.3253 14.6231 84.7814 13.9175 85.0848 13.143C85.3882 12.3686 85.5327 11.5409 85.5097 10.7095V0H84.1818H84.1951ZM82.0771 14.8923C81.9443 14.972 81.8115 15.0517 81.6654 15.1247C80.902 15.5018 80.0602 15.6929 79.2088 15.6824C78.6862 15.6842 78.1658 15.615 77.6618 15.4766C77.0425 15.3041 76.4643 15.0083 75.9621 14.6068C75.3982 14.1382 74.9485 13.5472 74.6471 12.8788C74.3457 12.2105 74.2005 11.4822 74.2226 10.7493C74.2005 10.0164 74.3457 9.28814 74.6471 8.61975C74.9485 7.95135 75.3982 7.36041 75.9621 6.89177C76.4725 6.49742 77.0575 6.21057 77.6817 6.04855C78.1857 5.9102 78.7061 5.84096 79.2287 5.84273C80.0801 5.83228 80.9219 6.02339 81.6853 6.40045C81.8314 6.47348 81.9642 6.55315 82.097 6.63283C82.3602 6.80154 82.605 6.99737 82.8273 7.2171C83.2838 7.68537 83.6418 8.24038 83.8801 8.84934C84.1185 9.45831 84.2323 10.1089 84.215 10.7626C84.2323 11.4163 84.1185 12.0668 83.8801 12.6758C83.6418 13.2848 83.2838 13.8398 82.8273 14.3081C82.5987 14.5289 82.3472 14.7248 82.0771 14.8923Z" fill="#595857"/>
<path d="M97.4077 12.9669C97.0121 13.8057 96.3792 14.51 95.5873 14.9927C94.7955 15.4753 93.8794 15.7152 92.9526 15.6824H92.8729C92.3826 15.6854 91.8939 15.6252 91.4189 15.5031C91.2662 15.4633 91.1201 15.4168 90.974 15.3637C90.6937 15.2583 90.4228 15.1295 90.164 14.9786C89.6481 14.6813 89.1966 14.2841 88.8361 13.8101C88.6604 13.5725 88.507 13.3191 88.378 13.0532C88.109 12.4857 87.9469 11.8735 87.9 11.2472L98.8153 11.1078L99.1937 11.0547V10.6829C99.1865 10.2571 99.1421 9.83279 99.0609 9.41475C98.9828 9.01157 98.8626 8.61769 98.7024 8.23957C98.6296 8.05197 98.543 7.86999 98.4435 7.69513C98.2604 7.3392 98.0376 7.00511 97.7795 6.69921C97.651 6.54518 97.5136 6.39886 97.3679 6.26101C96.6239 5.5539 95.7086 5.05277 94.7121 4.80696C94.2995 4.69374 93.8771 4.62037 93.4506 4.58786C93.2315 4.58786 93.0124 4.58786 92.7866 4.58786C92.5647 4.5884 92.343 4.60171 92.1227 4.6277C91.6927 4.67009 91.268 4.75459 90.8545 4.88C90.6542 4.93865 90.457 5.00734 90.2636 5.08582C89.5175 5.39069 88.8402 5.84225 88.2718 6.41371C88.1324 6.55314 88.0062 6.69921 87.8801 6.85192C86.9763 7.9994 86.5061 9.4288 86.5522 10.8887C86.5459 11.702 86.7018 12.5084 87.0108 13.2608C87.3197 14.0132 87.7755 14.6965 88.3515 15.2708C88.4909 15.4036 88.637 15.5363 88.7897 15.6559C89.4371 16.1467 90.1748 16.5054 90.9608 16.7115C91.164 16.7689 91.3701 16.8154 91.5782 16.851C92.0161 16.933 92.4607 16.973 92.9061 16.9705H92.9526C94.2124 16.965 95.4454 16.6061 96.5114 15.9347C96.7449 15.7735 96.9668 15.596 97.1753 15.4036C97.6146 15.0223 97.9911 14.5742 98.2907 14.0757C98.4472 13.8157 98.5805 13.5424 98.6891 13.259L98.9016 12.7411H97.4741L97.4077 12.9669ZM92.8929 5.84272C94.0729 5.81692 95.2252 6.20182 96.1528 6.93159C96.579 7.2839 96.9368 7.71149 97.2085 8.19309C97.4959 8.70097 97.6893 9.25651 97.7795 9.83304L87.9199 9.95919C88.0718 8.78488 88.6588 7.71034 89.5649 6.94808C90.471 6.18582 91.6302 5.79136 92.8132 5.84272H92.8929Z" fill="#595857"/>
<mask id="mask0_601_217" style="mask-type:luminance" maskUnits="userSpaceOnUse" x="120" y="2" width="21" height="22">
<path d="M139.535 19.9914L136.633 16.4725C137.847 14.704 138.38 12.5567 138.136 10.426C137.891 8.29534 136.886 6.32464 135.303 4.87669C133.721 3.42874 131.67 2.60101 129.526 2.54585C127.382 2.4907 125.29 3.21184 123.636 4.57653C121.981 5.94122 120.875 7.8576 120.522 9.9729C120.168 12.0882 120.59 14.26 121.711 16.0886C122.832 17.9172 124.575 19.2795 126.62 19.9246C128.666 20.5697 130.875 20.4544 132.842 19.5997L135.744 23.1186C135.948 23.3677 136.2 23.5736 136.485 23.724C136.77 23.8745 137.083 23.9667 137.404 23.995C137.483 24.0016 137.563 24.0016 137.643 23.995C138.212 23.9965 138.764 23.7993 139.203 23.4373C139.699 23.0211 140.012 22.4267 140.074 21.7823C140.136 21.1378 139.942 20.4947 139.535 19.9914ZM138.207 22.2024C138.123 22.2743 138.024 22.328 137.918 22.36C137.811 22.392 137.7 22.4016 137.59 22.3883C137.479 22.3787 137.372 22.3474 137.274 22.2961C137.176 22.2448 137.089 22.1746 137.019 22.0895L133.34 17.6211L132.318 18.0793C130.704 18.8054 128.882 18.9211 127.189 18.4048C125.497 17.8884 124.05 16.7752 123.116 15.2721C122.183 13.7689 121.827 11.9779 122.114 10.232C122.402 8.48607 123.314 6.90395 124.68 5.77964C126.046 4.65533 127.774 4.06528 129.543 4.11916C131.312 4.17304 133.001 4.86717 134.296 6.07257C135.591 7.27797 136.405 8.91264 136.586 10.6728C136.767 12.433 136.302 14.199 135.279 15.6426L134.615 16.5522L138.293 21.0205C138.365 21.104 138.418 21.2014 138.45 21.3065C138.482 21.4116 138.492 21.5222 138.479 21.6314C138.47 21.7422 138.438 21.85 138.385 21.9482C138.333 22.0463 138.261 22.1328 138.174 22.2024H138.207Z" fill="white"/>
</mask>
<g mask="url(#mask0_601_217)">
<path d="M130.439 27.753C133.87 27.5205 137.139 26.2099 139.781 24.0083L129.297 11.3933L130.439 27.753Z" fill="#E26564"/>
<path d="M129.297 11.4199L118.846 -1.1752C116.197 1.01118 114.305 3.97848 113.442 7.3034L129.297 11.4199Z" fill="#D1D478"/>
<path d="M120.599 25.2964C123.536 27.136 126.982 27.9962 130.439 27.753L129.297 11.4199L120.599 25.2964Z" fill="#EE7A63"/>
<path d="M113.442 7.30341C112.576 10.6603 112.797 14.2051 114.073 17.4286L129.297 11.3933L113.442 7.30341Z" fill="#F6E564"/>
<path d="M114.073 17.4552C115.357 20.6978 117.644 23.4451 120.599 25.2964L129.297 11.4199L114.073 17.4552Z" fill="#FF9B45"/>
<path d="M139.781 24.0083C142.425 21.8111 144.307 18.8343 145.159 15.5032L129.297 11.4199L139.781 24.0083Z" fill="#E080A4"/>
<path d="M145.159 15.5031C146.013 12.1427 145.781 8.59794 144.495 5.37793L129.27 11.4198L145.159 15.5031Z" fill="#CF91C2"/>
<path d="M138.001 -2.46323C135.057 -4.30486 131.605 -5.16499 128.142 -4.91983L129.284 11.4199L138.001 -2.46323Z" fill="#93CFDA"/>
<path d="M128.142 -4.91986C124.727 -4.67914 121.475 -3.36893 118.846 -1.1752L129.324 11.4398L128.142 -4.91986Z" fill="#97D186"/>
<path d="M144.521 5.37789C143.881 3.76372 142.985 2.26373 141.866 0.93609C140.759 -0.395752 139.448 -1.54321 137.981 -2.46332L129.297 11.4198L144.521 5.37789Z" fill="#8BC2E0"/>
</g>
<path d="M129.33 17.6477C132.755 17.6477 135.531 14.8713 135.531 11.4464C135.531 8.02158 132.755 5.24518 129.33 5.24518C125.905 5.24518 123.129 8.02158 123.129 11.4464C123.129 14.8713 125.905 17.6477 129.33 17.6477Z" fill="#E080A4"/>
<path d="M130.983 6.67265C130.177 6.39051 129.312 6.31379 128.468 6.44941C127.624 6.58503 126.828 6.92874 126.15 7.44947L125.971 7.59554C125.325 8.16839 124.835 8.89427 124.543 9.70642C124.252 10.5186 124.17 11.3909 124.304 12.2432L126.96 10.0123L130.997 6.69257L130.983 6.67265Z" fill="white"/>
<path d="M129.33 17.6477C132.755 17.6477 135.531 14.8713 135.531 11.4464C135.531 8.02158 132.755 5.24518 129.33 5.24518C125.905 5.24518 123.129 8.02158 123.129 11.4464C123.129 14.8713 125.905 17.6477 129.33 17.6477Z" fill="#F6E564"/>
<path d="M130.983 6.67265C130.177 6.39051 129.312 6.31379 128.468 6.44941C127.624 6.58503 126.828 6.92874 126.15 7.44947L125.971 7.59554C125.325 8.16839 124.835 8.89427 124.543 9.70642C124.252 10.5186 124.17 11.3909 124.304 12.2432L126.96 10.0123L130.997 6.69257L130.983 6.67265Z" fill="white"/>
</svg>
